G75*
G70*
%OFA0B0*%
%FSLAX24Y24*%
%IPPOS*%
%LPD*%
%AMOC8*
5,1,8,0,0,1.08239X$1,22.5*
%
%ADD10C,0.0500*%
%ADD11C,0.0477*%
%ADD12R,0.0671X0.0592*%
%ADD13C,0.1340*%
%ADD14C,0.0860*%
%ADD15C,0.0640*%
%ADD16R,0.0592X0.0671*%
%ADD17C,0.0120*%
D10*
X015259Y010274D02*
X016079Y010364D01*
X016149Y009874D02*
X015319Y009784D01*
X015179Y010774D02*
X016019Y010864D01*
D11*
X016016Y010869D02*
X015622Y010821D01*
X015683Y010325D02*
X016077Y010373D01*
X016138Y009877D02*
X015744Y009828D01*
D12*
X016859Y009848D03*
X016859Y009100D03*
X017659Y009100D03*
X017659Y009848D03*
X016859Y010680D03*
X016859Y011428D03*
D13*
X016378Y013511D03*
X009559Y001700D03*
X002740Y013511D03*
D14*
X005842Y002768D02*
X005476Y002080D01*
X006326Y001680D02*
X006692Y002368D01*
X007542Y001968D02*
X007176Y001280D01*
X003009Y007734D02*
X003009Y008514D01*
X002059Y008514D02*
X002059Y007734D01*
X001109Y007734D02*
X001109Y008514D01*
D15*
X014709Y003967D02*
X015224Y003748D01*
X015532Y004473D02*
X015017Y004692D01*
X015324Y005416D02*
X015840Y005198D01*
X016147Y005922D02*
X015632Y006141D01*
X015940Y006866D02*
X016455Y006647D01*
X016763Y007372D02*
X016247Y007591D01*
X016555Y008316D02*
X017070Y008097D01*
D16*
G36*
X016671Y006127D02*
X016903Y006671D01*
X017519Y006409D01*
X017287Y005865D01*
X016671Y006127D01*
G37*
G36*
X016379Y005439D02*
X016611Y005983D01*
X017227Y005721D01*
X016995Y005177D01*
X016379Y005439D01*
G37*
D17*
X012718Y002057D02*
X012658Y002117D01*
X012740Y002299D01*
X012924Y002369D01*
X013106Y002287D01*
X013176Y002103D01*
X013094Y001921D01*
X012910Y001851D01*
X012728Y001933D01*
X012658Y002117D01*
X012755Y002114D01*
X012806Y002228D01*
X012921Y002272D01*
X013035Y002221D01*
X013079Y002106D01*
X013028Y001992D01*
X012913Y001948D01*
X012799Y001999D01*
X012755Y002114D01*
X012853Y002111D01*
X012874Y002157D01*
X012918Y002174D01*
X012964Y002153D01*
X012981Y002109D01*
X012960Y002063D01*
X012916Y002046D01*
X012870Y002067D01*
X012853Y002111D01*
X011783Y001703D02*
X011723Y001763D01*
X011805Y001945D01*
X011989Y002015D01*
X012171Y001933D01*
X012241Y001749D01*
X012159Y001567D01*
X011975Y001497D01*
X011793Y001579D01*
X011723Y001763D01*
X011820Y001760D01*
X011871Y001874D01*
X011986Y001918D01*
X012100Y001867D01*
X012144Y001752D01*
X012093Y001638D01*
X011978Y001594D01*
X011864Y001645D01*
X011820Y001760D01*
X011918Y001757D01*
X011939Y001803D01*
X011983Y001820D01*
X012029Y001799D01*
X012046Y001755D01*
X012025Y001709D01*
X011981Y001692D01*
X011935Y001713D01*
X011918Y001757D01*
M02*
