%
M48
M72
T01C0.0197
T02C0.0236
T03C0.0320
T04C0.0520
T05C0.1260
%
T01
X16016Y10869
X16077Y10373
X16138Y9877
T02
X2659Y4144
X1159Y7004
X859Y10774
X1249Y12394
X2949Y15354
X6219Y17694
X12459Y16604
X15019Y14804
X17869Y12414
X17509Y10574
X15449Y9244
X15199Y11314
X17969Y7044
X14909Y2604
X13259Y4474
X12029Y4564
X10879Y3004
X11259Y954
X7059Y4564
T03
X11982Y1756
X12917Y2110
X15224Y3748
X15532Y4473
X15840Y5198
X16147Y5922
X16455Y6647
X16763Y7372
X17070Y8097
T04
X7359Y1624
X6509Y2024
X5659Y2424
X3009Y8124
X2059Y8124
X1109Y8124
T05
X2740Y13511
X9559Y1700
X16378Y13511
M30
